#N canvas 0 0 1370 729 12;
#X obj 103 103 tgl 28 0 empty empty empty 0 -10 0 12 #fcfcfc #000000 #000000 0 1;
#X obj 103 133 hradio 19 1 0 16 empty empty empty 0 -10 0 12 #fcfcfc #000000 #000000 0;
#X obj 570 394 metro;
#X msg 660 227 80;
#X msg 687 303 140;
#X msg 677 279 120;
#X msg 669 253 100;
#X msg 650 203 60;
#X floatatom 349 155 5 0 0 0 - - - 0;
#X floatatom 103 155 5 0 0 0 - - - 0;
#X obj 664 21 sel 0 1 2 3 4;
#X obj 805 58 == 0;
#X obj 813 82 == 1;
#X obj 819 106 == 2;
#X obj 830 152 == 4;
#X obj 823 129 == 3;
#X text 137 106 On/Off;
#X obj 343 272 f;
#X obj 391 272 + 1;
#X obj 343 319 mod 16;
#X text 148 154 Beat (0-15);
#X obj 602 349 expr (60/$f1)*1000;
#X text 331 106 BPM Selector;
#X text 392 154 BPM;
#X obj 602 328 * 4;
#X obj 110 324 outlet;
#X text 227 154 |16 Beat = 1 Bar|;
#X obj 229 106 hradio 19 1 0 5 empty empty empty 0 -10 0 12 #fcfcfc #000000 #000000 0;
#X text 32 578 0 8 = Half Note \, 0 4 8 12 = Quarter Note \, 0 2 4 6 8 10 12 14 = 8th Note, f 75;
#X text 156 541 CHEATSHEET FOR DUMMIES;
#X obj 345 462 outlet;
#X obj 240 325 outlet;
#X obj 327 425 b;
#X obj 221 20 loadbang;
#X msg 221 44 2;
#X connect 0 0 2 0;
#X connect 0 0 32 0;
#X connect 1 0 9 0;
#X connect 2 0 17 0;
#X connect 3 0 8 0;
#X connect 4 0 8 0;
#X connect 5 0 8 0;
#X connect 6 0 8 0;
#X connect 7 0 8 0;
#X connect 8 0 24 0;
#X connect 8 0 31 0;
#X connect 9 0 25 0;
#X connect 10 0 11 0;
#X connect 10 1 12 0;
#X connect 10 2 13 0;
#X connect 10 3 15 0;
#X connect 10 4 14 0;
#X connect 11 0 7 0;
#X connect 12 0 3 0;
#X connect 13 0 6 0;
#X connect 14 0 4 0;
#X connect 15 0 5 0;
#X connect 17 0 18 0;
#X connect 17 0 19 0;
#X connect 18 0 17 1;
#X connect 19 0 1 0;
#X connect 21 0 2 1;
#X connect 24 0 21 0;
#X connect 27 0 10 0;
#X connect 32 0 30 0;
#X connect 33 0 34 0;
#X connect 34 0 27 0;
#X coords 0 -1 1 1 322 76 2 100 100;
