#N canvas 52 52 1366 685 12;
#X obj 457 167 inlet;
#X floatatom 450 290 5 0 0 0 - - - 0;
#X obj 450 266 expr (60/$f1)*1000;
#X obj 450 245 * 4;
#X obj 450 313 outlet;
#X connect 0 0 3 0;
#X connect 1 0 4 0;
#X connect 2 0 1 0;
#X connect 3 0 2 0;
