#N canvas 676 0 681 676 12;
#X obj 285 134 inlet~;
#X obj 478 224 loadbang;
#X obj 483 261 samplerate~;
#X obj 452 205 bng 19 250 50 0 empty empty empty 0 -10 0 12 #fcfcfc #000000 #000000;
#X obj 483 284 / 512;
#X obj 483 308 osc~;
#X obj 483 332 *~ -0.5;
#X obj 483 356 +~ 0.5;
#X obj 286 179 abs~;
#X obj 52 232 phasor~;
#X floatatom 58 70 5 0 1e+06 0 - - - 0;
#X obj 52 256 *~ 256;
#X obj 65 410 *~ 0.6;
#X obj 65 434 outlet~;
#X obj 65 308 *~;
#X obj 65 332 +~;
#X obj 65 356 osc~;
#X obj 65 380 *~;
#X obj 251 316 *~;
#X obj 251 340 +~;
#X obj 251 364 osc~;
#X obj 251 388 *~;
#X floatatom 58 96 5 0 1e+06 0 - - - 0;
#X floatatom 58 122 5 0 1e+06 0 - - - 0;
#X obj 286 205 +~ 0.5;
#X obj 286 229 wrap~;
#X obj 299 257 *~ 256;
#X obj 109 210 samphold~;
#X obj 359 260 samphold~;
#X text 96 96 Freq Window;
#X text 96 122 Freq Offset;
#X text 96 70 Speed;
#X obj 368 132 inlet;
#X obj 420 131 inlet;
#X obj 467 132 inlet;
#X obj 120 532 loadbang;
#X obj 210 531 loadbang;
#X obj 283 531 loadbang;
#X msg 120 556 161;
#X msg 283 555 783;
#X msg 210 555 300;
#X text 128 586 Default Values;
#X text 291 42 Inlets: \; 1 Signal \; 2 Speed (F) \; 3 Freq Window (F) \; 4 Freq Offset (F);
#X obj 447 412 tabwrite~ \$2-hanning;
#X obj 480 387 table \$2-hanning;
#X obj 305 353 tabread~ \$2-hanning;
#X obj 119 345 tabread~ \$2-hanning;
#X connect 0 0 8 0;
#X connect 1 0 2 0;
#X connect 1 0 43 0;
#X connect 2 0 4 0;
#X connect 3 0 2 0;
#X connect 3 0 43 0;
#X connect 4 0 5 0;
#X connect 5 0 6 0;
#X connect 6 0 7 0;
#X connect 7 0 43 0;
#X connect 8 0 27 0;
#X connect 8 0 28 0;
#X connect 9 0 11 0;
#X connect 10 0 9 0;
#X connect 11 0 46 0;
#X connect 12 0 13 0;
#X connect 14 0 15 0;
#X connect 15 0 16 0;
#X connect 16 0 17 0;
#X connect 17 0 12 0;
#X connect 18 0 19 0;
#X connect 19 0 20 0;
#X connect 20 0 21 0;
#X connect 21 0 12 0;
#X connect 22 0 14 1;
#X connect 22 0 18 1;
#X connect 23 0 15 1;
#X connect 23 0 19 1;
#X connect 24 0 25 0;
#X connect 25 0 26 0;
#X connect 25 0 28 1;
#X connect 26 0 45 0;
#X connect 27 0 14 0;
#X connect 28 0 18 0;
#X connect 32 0 10 0;
#X connect 33 0 22 0;
#X connect 34 0 23 0;
#X connect 35 0 38 0;
#X connect 36 0 40 0;
#X connect 37 0 39 0;
#X connect 38 0 10 0;
#X connect 39 0 23 0;
#X connect 40 0 22 0;
#X connect 45 0 21 1;
#X connect 46 0 17 1;
