#N canvas 1363 0 1366 685 12;
#X obj 149 288 nbx 5 14 -1 1 0 0 empty empty empty 0 -8 0 10 #fcfcfc #000000 #000000 0 256;
#X obj 150 354 *~ 0;
#X obj 313 282 +~;
#X text 340 355 Feedback comb filter;
#X text 232 258 Delay M;
#X obj 316 336 delwrite~ \$0-buffer1;
#X obj 318 375 delread~ \$0-buffer1;
#X text 131 262 coeff b;
#X obj 318 396 *~ 1;
#X obj 150 461 nbx 5 14 -1 1 0 0 empty empty empty 0 -8 0 10 #fcfcfc #000000 #000000 0 256;
#X obj 151 527 *~ 0;
#X obj 314 455 +~;
#X obj 232 458 nbx 5 14 0 1e+37 0 0 empty empty empty 0 -8 0 10 #fcfcfc #000000 #000000 0 256;
#X text 341 528 Feedback comb filter;
#X text 233 431 Delay M;
#X text 132 435 coeff b;
#X obj 319 569 *~ 1;
#X obj 531 287 nbx 5 14 -1 1 0 0 empty empty empty 0 -8 0 10 #fcfcfc #000000 #000000 0 256;
#X obj 532 353 *~ 0;
#X obj 695 281 +~;
#X obj 613 284 nbx 5 14 0 1e+37 0 0 empty empty empty 0 -8 0 10 #fcfcfc #000000 #000000 0 256;
#X text 722 354 Feedback comb filter;
#X text 614 257 Delay M;
#X text 513 261 coeff b;
#X obj 700 395 *~ 1;
#X obj 532 460 nbx 5 14 -1 1 0 0 empty empty empty 0 -8 0 10 #fcfcfc #000000 #000000 0 256;
#X obj 533 526 *~ 0;
#X obj 696 454 +~;
#X text 698 527 Feedback comb filter;
#X text 615 430 Delay M;
#X text 514 434 coeff b;
#X obj 666 571 *~ 1;
#X floatatom 104 193 12 0 1e+37 0 - - - 0;
#X floatatom 104 139 10 0 0.88 0 - - - 0;
#X obj 55 411 - 0.015;
#X obj 479 247 - 0.03;
#X obj 490 409 - 0.06;
#X obj 233 395 * 1.2;
#X obj 604 397 * 1.8;
#X floatatom 604 505 5 0 0 0 - - - 0;
#X floatatom 622 326 5 0 0 0 - - - 0;
#X floatatom 236 338 5 0 0 0 - - - 0;
#X floatatom 245 492 5 0 0 0 - - - 0;
#X obj 317 509 delwrite~ \$0-buffer2;
#X obj 319 548 delread~ \$0-buffer2;
#X obj 701 547 delread~ \$0-buffer4;
#X obj 699 508 delwrite~ \$0-buffer4;
#X obj 698 335 delwrite~ \$0-buffer3;
#X obj 700 374 delread~ \$0-buffer3;
#X obj 609 221 * 1.4;
#X obj 332 232 inlet~;
#X obj 703 620 outlet~;
#X obj 705 575 *~ 1;
#X text 103 156 Filter Coeff;
#X text 102 209 Delay amount;
#X obj 107 118 hsl 80 19 0.01 0.7 0 0 empty empty empty -2 -10 0 12 #fcfcfc #000000 #000000 0 1;
#X obj 107 172 hsl 80 19 0 1e+37 0 0 empty empty empty -2 -10 0 12 #fcfcfc #000000 #000000 0 1;
#X connect 0 0 1 1 empty;
#X connect 0 0 34 0 empty;
#X connect 1 0 2 0 empty;
#X connect 2 0 5 0 empty;
#X connect 6 0 1 0 empty;
#X connect 6 0 8 0 empty;
#X connect 8 0 11 1 empty;
#X connect 9 0 10 1 empty;
#X connect 9 0 35 0 empty;
#X connect 10 0 11 0 empty;
#X connect 11 0 43 0 empty;
#X connect 12 0 42 0 empty;
#X connect 12 0 49 0 empty;
#X connect 16 0 19 1 empty;
#X connect 17 0 18 1 empty;
#X connect 17 0 36 0 empty;
#X connect 18 0 19 0 empty;
#X connect 19 0 47 0 empty;
#X connect 20 0 40 0 empty;
#X connect 24 0 27 1 empty;
#X connect 25 0 26 1 empty;
#X connect 26 0 27 0 empty;
#X connect 27 0 46 0 empty;
#X connect 31 0 51 0 empty;
#X connect 32 0 41 0 empty;
#X connect 33 0 0 0 empty;
#X connect 34 0 9 0 empty;
#X connect 35 0 17 0 empty;
#X connect 36 0 25 0 empty;
#X connect 37 0 12 0 empty;
#X connect 38 0 39 0 empty;
#X connect 39 0 45 0 empty;
#X connect 40 0 38 0 empty;
#X connect 40 0 48 0 empty;
#X connect 41 0 6 0 empty;
#X connect 41 0 37 0 empty;
#X connect 42 0 44 0 empty;
#X connect 44 0 10 0 empty;
#X connect 44 0 16 0 empty;
#X connect 45 0 26 0 empty;
#X connect 45 0 31 0 empty;
#X connect 45 0 52 0 empty;
#X connect 48 0 18 0 empty;
#X connect 48 0 24 0 empty;
#X connect 49 0 20 0 empty;
#X connect 50 0 2 1 empty;
#X connect 52 0 51 0 empty;
#X connect 55 0 33 0 empty;
#X connect 56 0 32 0 empty;
#X coords 0 -1 1 1 97 130 1 100 100;
