#N canvas 676 0 1920 976 12;
#X obj 533 28 block~ 1024 4;
#X obj 189 230 inlet~;
#X obj 460 80 loadbang;
#X obj 465 117 samplerate~;
#X msg 560 115 0;
#X obj 103 138 bng 19 250 50 0 empty empty empty 0 -10 0 12 #fcfcfc #000000 #000000;
#X obj 465 140 / 512;
#X obj 465 164 osc~;
#X obj 465 188 *~ -0.5;
#X obj 465 212 +~ 0.5;
#X obj 189 254 *~;
#X obj 189 278 rfft~;
#X obj 221 321 *~;
#X obj 262 320 *~;
#X obj 189 547 *~;
#X obj 229 547 *~;
#X obj 221 366 +~ 1e-20;
#X obj 221 343 +~;
#X obj 221 390 q8_rsqrt~;
#X obj 222 463 clip~;
#X obj 254 419 r squelch;
#X obj 58 188 s squelch;
#X obj 222 487 *~ 0.00065;
#X obj 189 571 rifft~;
#X obj 189 595 *~;
#X obj 189 619 outlet~;
#X obj 254 441 expr 0.01*$f1*$f1;
#X floatatom 103 117 5 0 0 0 - - - 0;
#X text 141 118 Comp level;
#X text 123 139 Hanning INIT;
#X obj 245 231 inlet;
#X obj 265 571 tabreceive~ \$0-hanning;
#X obj 532 81 table \$0-hanning;
#X obj 429 268 tabwrite~ \$0-hanning;
#X obj 287 230 tabreceive~ \$0-hanning;
#X connect 1 0 10 0;
#X connect 2 0 3 0;
#X connect 2 0 33 0;
#X connect 3 0 6 0;
#X connect 4 0 7 1;
#X connect 5 0 3 0;
#X connect 5 0 4 0;
#X connect 5 0 33 0;
#X connect 6 0 7 0;
#X connect 7 0 8 0;
#X connect 8 0 9 0;
#X connect 9 0 33 0;
#X connect 10 0 11 0;
#X connect 11 0 12 0;
#X connect 11 0 14 0;
#X connect 11 1 13 0;
#X connect 11 1 15 0;
#X connect 12 0 17 0;
#X connect 13 0 17 1;
#X connect 14 0 23 0;
#X connect 15 0 23 1;
#X connect 16 0 18 0;
#X connect 17 0 16 0;
#X connect 18 0 19 0;
#X connect 19 0 22 0;
#X connect 20 0 26 0;
#X connect 22 0 15 1;
#X connect 22 0 14 1;
#X connect 23 0 24 0;
#X connect 24 0 25 0;
#X connect 26 0 19 2;
#X connect 27 0 21 0;
#X connect 30 0 27 0;
#X connect 31 0 24 1;
#X connect 34 0 10 1;
#X coords 0 -1 1 1 120 60 1 100 100;
