#N canvas 676 0 681 676 12;
#X obj 91 86 block~ 1024 4;
#X obj 460 80 loadbang;
#X obj 465 117 samplerate~;
#X msg 560 115 0;
#X obj 434 61 bng 19 250 50 0 empty empty empty 0 -10 0 12 #fcfcfc #000000 #000000;
#X obj 465 164 osc~;
#X obj 465 188 *~ -0.5;
#X obj 465 212 +~ 0.5;
#X obj 117 165 inlet~;
#X obj 117 189 *~;
#X obj 117 213 rfft~;
#X obj 182 256 *~;
#X obj 223 255 *~;
#X obj 117 482 *~;
#X obj 157 482 *~;
#X obj 182 278 +~;
#X obj 182 325 q8_rsqrt~;
#X obj 182 422 *~ 0.00065;
#X obj 117 506 rifft~;
#X obj 117 530 *~;
#X obj 117 554 outlet~;
#X obj 390 312 inlet~;
#X obj 390 336 *~;
#X obj 390 360 rfft~;
#X obj 391 403 *~;
#X obj 432 402 *~;
#X obj 391 425 +~;
#X obj 391 472 q8_rsqrt~;
#X obj 181 377 *~;
#X obj 182 301 +~ 1e-20;
#X obj 465 140 / 64;
#X obj 457 312 tabreceive~ \$0-hanning;
#X obj 430 268 tabwrite~ \$0-hanning;
#X obj 215 165 tabreceive~ \$0-hanning;
#X obj 233 117 table \$0-hanning;
#X obj 193 506 tabreceive~ \$0-hanning;
#X connect 1 0 2 0;
#X connect 1 0 32 0;
#X connect 2 0 30 0;
#X connect 3 0 5 1;
#X connect 4 0 2 0;
#X connect 4 0 3 0;
#X connect 4 0 32 0;
#X connect 5 0 6 0;
#X connect 6 0 7 0;
#X connect 7 0 32 0;
#X connect 8 0 9 0;
#X connect 9 0 10 0;
#X connect 10 0 11 0;
#X connect 10 0 13 0;
#X connect 10 0 11 1;
#X connect 10 1 12 0;
#X connect 10 1 14 0;
#X connect 10 1 12 1;
#X connect 11 0 15 0;
#X connect 12 0 15 1;
#X connect 13 0 18 0;
#X connect 14 0 18 1;
#X connect 15 0 29 0;
#X connect 16 0 28 0;
#X connect 17 0 14 1;
#X connect 17 0 13 1;
#X connect 18 0 19 0;
#X connect 19 0 20 0;
#X connect 21 0 22 0;
#X connect 22 0 23 0;
#X connect 23 0 24 0;
#X connect 23 0 24 1;
#X connect 23 1 25 0;
#X connect 23 1 25 1;
#X connect 24 0 26 0;
#X connect 25 0 26 1;
#X connect 26 0 27 0;
#X connect 27 0 28 1;
#X connect 28 0 17 0;
#X connect 29 0 16 0;
#X connect 30 0 5 0;
#X connect 31 0 22 1;
#X connect 33 0 9 1;
#X connect 35 0 19 1;
