#N canvas 0 0 1370 729 12;
#X obj 102 102 hradio 60 1 0 5 empty empty empty 0 -10 0 12 #fcfcfc #000000 #000000 0;
#X obj 842 383 lop~;
#X obj 1172 384 bob~;
#X obj 1082 383 vcf~;
#X obj 910 383 hip~;
#X obj 1018 383 bp~;
#X floatatom 103 178 10 20 20000 0 - - - 24;
#X floatatom 270 179 5 0 8 0 - - - 24;
#X text 118 160 HPF;
#X text 176 160 LPF;
#X text 232 160 BP;
#X text 287 160 VCF;
#X text 344 160 Ladder;
#X obj 769 114 inlet~;
#X obj 1101 288 sig~;
#X obj 844 115 inlet;
#X obj 405 104 vsl 19 120 20 20000 0 0 empty empty empty 0 -9 0 12 #fcfcfc #000000 #000000 0 1;
#X obj 438 104 vsl 19 120 0 8 0 0 empty empty empty 0 -9 0 12 #fcfcfc #000000 #000000 0 1;
#X obj 904 114 inlet;
#X text 104 209 Filter Cutoff (Hz);
#X text 385 188 FC;
#X text 424 188 Q;
#X obj 866 572 *~ 1;
#X obj 866 790 outlet~;
#X text 256 211 Filter Q (B/V/L only);
#X obj 409 590 == 4;
#X obj 319 590 == 3;
#X obj 261 585 == 2;
#X obj 190 587 == 1;
#X obj 115 587 == 0;
#X obj 122 685 tgl 19 0 empty empty empty 0 -10 0 12 #fcfcfc #000000 #000000 0 1;
#X obj 185 685 tgl 19 0 empty empty empty 0 -10 0 12 #fcfcfc #000000 #000000 0 1;
#X obj 242 685 tgl 19 0 empty empty empty 0 -10 0 12 #fcfcfc #000000 #000000 0 1;
#X obj 375 685 tgl 19 0 empty empty empty 0 -10 0 12 #fcfcfc #000000 #000000 0 1;
#X obj 309 685 tgl 19 0 empty empty empty 0 -10 0 12 #fcfcfc #000000 #000000 0 1;
#X obj 1002 221 *~;
#X floatatom 125 718 5 0 0 0 - - - 0;
#X floatatom 181 721 5 0 0 0 - - - 0;
#X floatatom 244 724 5 0 0 0 - - - 0;
#X floatatom 311 726 5 0 0 0 - - - 0;
#X floatatom 380 728 5 0 0 0 - - - 0;
#X obj 1078 219 *~;
#X obj 1146 214 *~;
#X obj 1221 215 *~;
#X obj 1288 218 *~;
#X msg 264 625 \$1 20;
#X obj 264 649 line;
#X msg 346 627 \$1 20;
#X obj 346 651 line;
#X msg 424 633 \$1 20;
#X obj 424 657 line;
#X msg 507 636 \$1 20;
#X obj 507 660 line;
#X msg 591 636 \$1 20;
#X obj 591 660 line;
#X connect 0 0 29 0;
#X connect 0 0 28 0;
#X connect 0 0 27 0;
#X connect 0 0 26 0;
#X connect 0 0 25 0;
#X connect 1 0 22 0;
#X connect 2 0 22 0;
#X connect 3 0 22 0;
#X connect 4 0 22 0;
#X connect 5 0 22 0;
#X connect 6 0 1 1;
#X connect 6 0 5 1;
#X connect 6 0 4 1;
#X connect 6 0 14 0;
#X connect 7 0 5 2;
#X connect 7 0 3 2;
#X connect 7 0 2 2;
#X connect 13 0 35 0;
#X connect 13 0 41 0;
#X connect 13 0 42 0;
#X connect 13 0 43 0;
#X connect 13 0 44 0;
#X connect 14 0 3 1;
#X connect 14 0 2 1;
#X connect 15 0 6 0;
#X connect 16 0 6 0;
#X connect 17 0 7 0;
#X connect 18 0 7 0;
#X connect 22 0 23 0;
#X connect 25 0 33 0;
#X connect 26 0 34 0;
#X connect 27 0 32 0;
#X connect 28 0 31 0;
#X connect 29 0 30 0;
#X connect 30 0 36 0;
#X connect 31 0 37 0;
#X connect 32 0 38 0;
#X connect 33 0 40 0;
#X connect 34 0 39 0;
#X connect 35 0 1 0;
#X connect 36 0 45 0;
#X connect 37 0 47 0;
#X connect 38 0 49 0;
#X connect 39 0 51 0;
#X connect 40 0 53 0;
#X connect 41 0 4 0;
#X connect 42 0 5 0;
#X connect 43 0 3 0;
#X connect 44 0 2 0;
#X connect 45 0 46 0;
#X connect 46 0 35 1;
#X connect 47 0 48 0;
#X connect 48 0 41 1;
#X connect 49 0 50 0;
#X connect 50 0 42 1;
#X connect 51 0 52 0;
#X connect 52 0 43 1;
#X connect 53 0 54 0;
#X connect 54 0 44 1;
#X coords 0 -1 1 1 360 130 2 100 100;
