#N canvas 676 0 1366 685 12;
#X obj 216 236 t b f;
#X obj 329 236 t b f;
#X obj 216 68 vsl 19 162 100 30000 0 0 empty empty empty 0 -9 0 12 #fcfcfc #000000 #000000 0 1;
#X obj 329 40 vsl 19 162 -36 36 0 0 empty empty empty 0 -9 0 12 #fcfcfc #000000 #000000 0 1;
#X floatatom 216 272 5 0 0 0 - - - 0;
#X floatatom 329 210 5 0 0 0 - - - 0;
#X obj 216 295 expr (pow(2 \, ($f2/12)) - 1) * (44100/$f1);
#X floatatom 216 319 5 0 0 0 - - - 0;
#X obj 278 320 / 44.1;
#X floatatom 278 345 5 0 0 0 - - - 0;
#X obj 158 374 phasor~;
#X obj 158 398 *~ -1;
#X obj 158 422 +~ 1;
#X obj 157 444 *~;
#X obj 205 399 sig~;
#X obj 205 423 samphold~;
#X obj 388 341 +~ 0.5;
#X obj 387 365 wrap~;
#X obj 389 395 *~ -1;
#X obj 389 419 +~ 1;
#X obj 388 441 *~;
#X obj 436 396 sig~;
#X obj 436 420 samphold~;
#X obj 232 447 sig~ 1;
#X obj 232 471 -~;
#X obj 232 494 *~ 0.5;
#X obj 179 516 *~;
#X obj 200 560 *~ 0.65;
#X obj 495 438 sig~ 1;
#X obj 495 462 -~;
#X obj 495 494 *~ 0.5;
#X obj 442 516 *~;
#X obj 290 466 cos~;
#X obj 590 453 cos~;
#X obj 463 560 *~ 1;
#X obj 379 569 inlet~;
#X obj 200 614 outlet~;
#X obj 111 89 loadbang;
#X obj 383 46 loadbang;
#X msg 383 70 -36;
#X msg 111 113 30000;
#X obj 124 494 delread4~ \$0-b1;
#X obj 379 593 delwrite~ \$0-b1 5000;
#X obj 364 495 delread4~ \$0-b1;
#X connect 0 0 5 0;
#X connect 0 1 4 0;
#X connect 1 0 4 0;
#X connect 2 0 0 0;
#X connect 3 0 5 0;
#X connect 4 0 6 0;
#X connect 4 0 8 0;
#X connect 5 0 1 0;
#X connect 6 0 7 0;
#X connect 7 0 10 0;
#X connect 8 0 9 0;
#X connect 9 0 14 0;
#X connect 9 0 21 0;
#X connect 10 0 11 0;
#X connect 10 0 16 0;
#X connect 10 0 15 1;
#X connect 10 0 32 0;
#X connect 11 0 12 0;
#X connect 12 0 13 0;
#X connect 13 0 41 0;
#X connect 14 0 15 0;
#X connect 15 0 13 1;
#X connect 16 0 17 0;
#X connect 16 0 22 1;
#X connect 17 0 18 0;
#X connect 17 0 33 0;
#X connect 18 0 19 0;
#X connect 19 0 20 0;
#X connect 20 0 43 0;
#X connect 21 0 22 0;
#X connect 22 0 20 1;
#X connect 23 0 24 0;
#X connect 24 0 25 0;
#X connect 25 0 26 1;
#X connect 26 0 27 0;
#X connect 27 0 36 0;
#X connect 28 0 29 0;
#X connect 29 0 30 0;
#X connect 30 0 31 1;
#X connect 31 0 34 0;
#X connect 31 0 27 0;
#X connect 32 0 24 1;
#X connect 33 0 29 1;
#X connect 34 0 42 0;
#X connect 35 0 42 0;
#X connect 37 0 40 0;
#X connect 38 0 39 0;
#X connect 39 0 3 0;
#X connect 40 0 2 0;
#X connect 41 0 26 0;
#X connect 43 0 31 0;
