#N canvas 0 0 1365 676 12;
#X obj 800 44 bendin, f 8;
#X obj 678 46 notein, f 15;
#X floatatom 104 129 5 0 127 0 - - - 0;
#X floatatom 104 175 5 0 127 0 - - - 0;
#X floatatom 103 103 5 0 0 0 - - - 0;
#X obj 135 468 outlet;
#X text 144 128 MIDI Value;
#X text 143 177 Velocity;
#X obj 678 169 mtof;
#X floatatom 104 152 9 0 0 0 - - - 0;
#X obj 592 197 / 127;
#X floatatom 104 198 5 0 0 0 - - - 0;
#X text 173 153 Hz Value;
#X obj 800 68 / 128;
#X obj 800 92 moses 63;
#X floatatom 800 116 5 0 0 0 - - - 0;
#X obj 800 139 - 64;
#X obj 800 163 / 64;
#X obj 882 113 moses 65;
#X floatatom 882 137 5 0 0 0 - - - 0;
#X msg 882 160 0;
#X floatatom 935 146 5 0 0 0 - - - 0;
#X obj 935 169 - 63.9;
#X obj 935 193 div 1;
#X obj 935 231 / 64;
#X obj 799 343 t b f;
#X obj 799 370 *, f 5;
#X floatatom 801 302 5 0 0 0 - - - 0;
#X msg 650 444 2;
#X msg 679 448 3;
#X msg 708 451 4;
#X msg 737 453 6;
#X msg 766 455 12;
#X obj 701 408 sel 0 1 2 3 4 5;
#X msg 795 457 24;
#X text 145 223 Bend Range (Semitone);
#X obj 824 270 poly 8 1;
#X text 143 102 MIDI Channel;
#X obj 104 251 hradio 19 1 0 6 empty empty empty 0 -10 0 12 #fcfcfc #000000 #000000 0;
#X text 103 269 Bend Range Selector;
#X obj 211 468 outlet;
#X obj 292 468 outlet;
#X obj 401 468 outlet;
#X obj 513 468 outlet;
#X obj 592 148 +;
#X floatatom 104 224 5 0 0 0 - - - 0;
#X floatatom 226 252 5 0 0 0 - - - 0;
#X text 144 199 Velocity Amp Value;
#X text 117 502 MIDI Value;
#X text 210 502 Hz Value;
#X text 290 502 Velocity;
#X text 361 502 Velocity Amp Value;
#X text 504 501 Bend Modulation;
#X msg 506 283 24;
#X msg 544 283 12;
#X msg 609 283 -12;
#X msg 643 283 -24;
#X msg 577 283 0;
#X obj 514 244 sel 0 1 2 3 4;
#X obj 278 105 vradio 19 1 0 5 empty empty empty 0 -10 0 12 #fcfcfc #000000 #000000 0;
#X obj 100 28 +;
#X text 207 168 Transpose;
#X obj 326 50 loadbang;
#X msg 326 74 2;
#X connect 0 0 13 0;
#X connect 1 0 60 0;
#X connect 1 1 3 0;
#X connect 1 2 4 0;
#X connect 2 0 5 0;
#X connect 2 0 44 0;
#X connect 3 0 10 0;
#X connect 3 0 41 0;
#X connect 8 0 9 0;
#X connect 9 0 40 0;
#X connect 10 0 11 0;
#X connect 11 0 42 0;
#X connect 13 0 14 0;
#X connect 14 0 15 0;
#X connect 14 1 18 0;
#X connect 15 0 16 0;
#X connect 16 0 17 0;
#X connect 17 0 26 0;
#X connect 17 0 27 0;
#X connect 18 0 19 0;
#X connect 18 1 21 0;
#X connect 19 0 20 0;
#X connect 20 0 26 0;
#X connect 20 0 27 0;
#X connect 21 0 22 0;
#X connect 22 0 23 0;
#X connect 23 0 24 0;
#X connect 24 0 26 0;
#X connect 24 0 27 0;
#X connect 25 0 26 0;
#X connect 25 0 27 0;
#X connect 25 1 26 1;
#X connect 25 1 27 0;
#X connect 26 0 45 0;
#X connect 28 0 25 0;
#X connect 28 0 46 0;
#X connect 29 0 25 0;
#X connect 29 0 46 0;
#X connect 30 0 25 0;
#X connect 30 0 46 0;
#X connect 31 0 25 0;
#X connect 31 0 46 0;
#X connect 32 0 25 0;
#X connect 32 0 46 0;
#X connect 33 0 28 0;
#X connect 33 1 29 0;
#X connect 33 2 30 0;
#X connect 33 3 31 0;
#X connect 33 4 32 0;
#X connect 33 5 34 0;
#X connect 34 0 25 0;
#X connect 34 0 46 0;
#X connect 38 0 33 0;
#X connect 44 0 8 0;
#X connect 45 0 44 1;
#X connect 45 0 43 0;
#X connect 53 0 60 1;
#X connect 54 0 60 1;
#X connect 55 0 60 1;
#X connect 56 0 60 1;
#X connect 57 0 60 1;
#X connect 58 0 53 0;
#X connect 58 1 54 0;
#X connect 58 2 57 0;
#X connect 58 3 55 0;
#X connect 58 4 56 0;
#X connect 59 0 58 0;
#X connect 60 0 2 0;
#X connect 62 0 63 0;
#X connect 63 0 59 0;
#X coords 0 -1 1 1 200 187 2 100 100;
