#N canvas 676 0 1366 685 12;
#X obj 358 469 vcf~ 0.25;
#X obj 354 284 expr~ if($v1 > 1 \, 2 - $v1 \, $v1);
#X obj 354 321 expr~ if($v1 < -1 \, -2 - $v1 \, $v1);
#X obj 106 119 hsl 162 19 0 20000 0 0 empty empty empty -2 -10 0 12 #fcfcfc #000000 #000000 0 1;
#X floatatom 103 140 10 0 0 0 - - - 0;
#X obj 422 442 *;
#X obj 606 260 f 1000;
#X msg 606 284 1 \$1;
#X msg 767 350 0;
#X obj 588 386 line 0 1;
#X obj 671 259 f 1000;
#X msg 667 283 0 \$1;
#X floatatom 102 179 5 0 2000 0 - - - 0;
#X floatatom 149 179 5 0 10000 0 - - - 0;
#X obj 438 401 pow 4;
#X text 246 140 Q;
#X floatatom 204 141 5 0 8 0 - - - 0;
#X obj 367 85 inlet~;
#X obj 359 525 outlet~;
#X text 179 139 FC;
#X text 100 162 Attack;
#X text 149 162 Release;
#X obj 221 161 bng 19 250 50 0 empty empty empty 0 -10 0 12 #fcfcfc #000000 #000000;
#X text 241 160 INIT;
#X obj 926 161 loadbang;
#X obj 563 36 key;
#X obj 616 36 keyup;
#X text 220 181 Press |;
#X obj 616 81 sel 92;
#X obj 563 81 sel 92;
#X msg 926 185 110;
#X msg 981 186 956;
#X obj 198 179 bng 19 250 50 0 empty empty empty 0 -10 0 12 #fcfcfc #000000 #000000;
#X obj 563 105 b;
#X obj 616 105 b;
#X connect 0 0 18 0;
#X connect 1 0 2 0;
#X connect 2 0 0 0;
#X connect 3 0 4 0;
#X connect 4 0 5 1;
#X connect 4 0 0 1;
#X connect 5 0 0 1;
#X connect 6 0 7 0;
#X connect 7 0 9 0;
#X connect 8 0 9 0;
#X connect 9 0 14 0;
#X connect 10 0 11 0;
#X connect 11 0 9 0;
#X connect 12 0 6 1;
#X connect 13 0 10 1;
#X connect 14 0 5 0;
#X connect 16 0 0 2;
#X connect 17 0 1 0;
#X connect 22 0 8 0;
#X connect 24 0 31 0;
#X connect 24 0 30 0;
#X connect 25 0 29 0;
#X connect 26 0 28 0;
#X connect 28 0 34 0;
#X connect 29 0 33 0;
#X connect 30 0 12 0;
#X connect 31 0 13 0;
#X connect 33 0 32 0;
#X connect 33 0 6 0;
#X connect 34 0 32 0;
#X connect 34 0 10 0;
#X coords 0 -1 1 1 175 100 1 100 100;
