#N canvas 0 0 1370 729 12;
#X obj 271 112 inlet~;
#X obj 106 105 vsl 57 162 0 1 0 0 empty empty empty 0 -9 0 12 #fcfcfc #000000 #000000 0 1;
#X obj 253 194 *~;
#X obj 262 255 *~;
#X obj 282 391 outlet~;
#X obj 105 294 tgl 19 0 empty empty empty 0 -10 0 12 #fcfcfc #000000 #000000 0 1;
#X obj 345 113 inlet;
#X obj 673 320 vuactive;
#X obj 673 344 vu 19 200 empty empty -1 -10 0 12 #404040 #000000 1 0;
#X floatatom 124 272 5 0 0 0 - - - 0;
#X text 103 273 dB;
#X obj 729 72 sel 0 1;
#X msg 697 110 1;
#X msg 748 144 0;
#X text 801 144 1 In 1 Out VCA with dB display and mute;
#X text 131 294 Mute;
#X connect 0 0 2 0;
#X connect 1 0 3 1;
#X connect 2 0 3 0;
#X connect 3 0 4 0;
#X connect 3 0 7 0;
#X connect 5 0 11 0;
#X connect 6 0 3 1;
#X connect 7 0 8 0;
#X connect 8 0 9 0;
#X connect 11 0 12 0;
#X connect 11 1 13 0;
#X connect 12 0 2 1;
#X connect 13 0 2 1;
#X coords 0 -1 1 1 70 220 2 100 100;
