#N canvas 52 52 1366 685 12;
#X obj 249 99 inlet~;
#X obj 322 95 inlet;
#X obj 181 418 *~;
#X obj 196 472 outlet~;
#X obj 314 420 *~;
#X obj 321 472 outlet~;
#X obj 230 305 vline~;
#X obj 230 329 cos~;
#X msg 229 270 \$1 10;
#X obj 336 310 vline~;
#X obj 336 334 cos~;
#X msg 335 275 \$1 10;
#X obj 337 223 + 0.75;
#X floatatom 335 178 5 0 0 0 - - - 0;
#X obj 318 152 / 4;
#X connect 0 0 2 0;
#X connect 0 0 4 0;
#X connect 1 0 14 0;
#X connect 2 0 3 0;
#X connect 4 0 5 0;
#X connect 6 0 7 0;
#X connect 7 0 2 1;
#X connect 8 0 6 0;
#X connect 9 0 10 0;
#X connect 10 0 4 1;
#X connect 11 0 9 0;
#X connect 12 0 11 0;
#X connect 13 0 12 0;
#X connect 13 0 8 0;
#X connect 14 0 13 0;
