#N canvas 0 0 1370 729 12;
#X obj 604 274 rev3~, f 48;
#X obj 825 82 inlet~;
#X obj 702 387 *~;
#X obj 103 132 vsl 19 81 0 1 0 0 empty empty empty 0 -9 0 12 #fcfcfc #000000 #000000 0 1;
#X obj 131 132 vsl 19 81 0 1 0 0 empty empty empty 0 -9 0 12 #fcfcfc #000000 #000000 0 1;
#X obj 158 132 vsl 19 81 60 95 0 0 empty empty empty 0 -9 0 12 #fcfcfc #000000 #000000 0 1;
#X obj 181 132 vsl 19 81 2000 20000 0 0 empty empty empty 0 -9 0 12 #fcfcfc #000000 #000000 0 1;
#X obj 203 132 vsl 19 81 0 100 0 0 empty empty empty 0 -9 0 12 #fcfcfc #000000 #000000 0 1;
#X text 153 114 Room;
#X text 128 114 Wet;
#X text 102 114 Dry;
#X obj 146 218 tgl 30 0 empty empty empty 0 -10 0 12 #7c7c7c #ff0400 #000000 0 1;
#X obj 753 573 *~ 1;
#X obj 753 594 outlet~;
#X text 130 246 ON/BYPASS;
#X msg 824 222 100;
#X floatatom 824 246 5 0 0 0 - - - 0;
#X obj 825 182 loadbang;
#X obj 703 517 *~;
#X text 185 113 Hz+%;
#X obj 777 387 *~;
#X obj 884 573 *~ 1;
#X obj 884 594 outlet~;
#X obj 778 517 *~;
#X obj 837 117 *~ -1;
#X obj 1198 308 *~;
#X connect 0 0 2 0;
#X connect 0 0 20 0;
#X connect 0 1 2 0;
#X connect 0 1 20 0;
#X connect 0 2 20 0;
#X connect 0 2 2 0;
#X connect 0 3 20 0;
#X connect 0 3 2 0;
#X connect 1 0 0 0;
#X connect 1 0 24 0;
#X connect 1 0 25 0;
#X connect 2 0 18 0;
#X connect 3 0 25 1;
#X connect 4 0 18 1;
#X connect 4 0 23 1;
#X connect 5 0 0 3;
#X connect 6 0 0 4;
#X connect 7 0 0 5;
#X connect 11 0 2 1;
#X connect 11 0 20 1;
#X connect 12 0 13 0;
#X connect 15 0 16 0;
#X connect 16 0 0 2;
#X connect 17 0 15 0;
#X connect 18 0 12 0;
#X connect 20 0 23 0;
#X connect 21 0 22 0;
#X connect 23 0 21 0;
#X connect 24 0 0 1;
#X connect 25 0 12 0;
#X connect 25 0 21 0;
#X coords 0 -1 1 1 125 163 1 100 100;
