#N canvas 1263 15 1366 685 12;
#X floatatom 103 104 12 0 0 0 - - - 0;
#X obj 347 69 loadbang;
#X obj 347 93 tgl 19 0 empty empty empty 0 -10 0 12 #fcfcfc #000000 #000000 0 1;
#X obj 310 143 snapshot~;
#X obj 103 35 ftom;
#X obj 310 42 inlet~;
#X obj 103 262 outlet;
#X obj 212 264 outlet;
#X floatatom 212 105 5 0 0 0 - - - 0;
#X text 197 127 MIDI Value;
#X text 101 126 Sig Freq (Hz);
#X obj 347 116 metro 300;
#X obj 449 42 inlet;
#X connect 0 0 4 0;
#X connect 0 0 6 0;
#X connect 1 0 11 0;
#X connect 2 0 11 0;
#X connect 3 0 0 0;
#X connect 4 0 8 0;
#X connect 5 0 3 0;
#X connect 8 0 7 0;
#X connect 11 0 3 0;
#X connect 12 0 11 0;
#X coords 0 -1 1 1 175 45 2 100 100;
