#N canvas 0 0 1370 729 12;
#X obj 698 255 vuactive;
#X obj 144 105 vu 30 200 empty empty -1 -10 0 12 #404040 #000000 0 0;
#X floatatom 143 312 5 0 0 0 - - - 0;
#X obj 696 163 *~;
#X obj 102 333 tgl 19 0 empty empty empty 0 -10 0 12 #fcfcfc #000000 #000000 0 1;
#X obj 102 104 vsl 38 200 0 2 0 0 empty empty empty 0 -9 0 12 #fcfcfc #000000 #000000 0 1;
#X floatatom 102 312 5 0 0 0 - - - 0;
#X obj 751 132 loadbang;
#X msg 751 194 150;
#X obj 697 190 *~;
#X obj 1010 92 sel 0 1;
#X msg 987 119 0;
#X msg 1038 119 1;
#X obj 692 97 clip~ -0.99 0.99;
#X obj 688 25 adc~;
#X text 121 334 ADC Mute;
#X obj 525 399 outlet~;
#X obj 190 61 inlet;
#X obj 1009 404 outlet;
#X obj 836 165 *~;
#X obj 836 193 *~;
#X obj 831 100 clip~ -0.99 0.99;
#X obj 664 402 outlet~;
#X connect 0 0 1 0;
#X connect 1 0 2 0;
#X connect 2 0 18 0;
#X connect 3 0 9 0;
#X connect 4 0 10 0;
#X connect 5 0 6 0;
#X connect 5 0 9 1;
#X connect 5 0 20 1;
#X connect 7 0 8 0;
#X connect 8 0 0 1;
#X connect 9 0 0 0;
#X connect 9 0 16 0;
#X connect 10 0 12 0;
#X connect 10 1 11 0;
#X connect 11 0 3 1;
#X connect 11 0 19 1;
#X connect 12 0 3 1;
#X connect 12 0 19 1;
#X connect 13 0 3 0;
#X connect 14 0 13 0;
#X connect 14 1 21 0;
#X connect 17 0 4 0;
#X connect 19 0 20 0;
#X connect 20 0 22 0;
#X connect 21 0 19 0;
#X coords 0 -1 1 1 83 254 2 100 100;
