#N canvas 0 0 1370 729 12;
#X obj 271 112 inlet~;
#X obj 400 113 inlet~;
#X obj 104 105 vsl 57 162 0 1 0 0 empty empty empty 0 -9 0 12 #fcfcfc #000000 #000000 0 1;
#X obj 253 194 *~;
#X obj 262 255 *~;
#X obj 282 391 outlet~;
#X obj 382 194 *~;
#X obj 391 255 *~;
#X obj 383 389 outlet~;
#X obj 569 121 inlet;
#X obj 673 320 vuactive;
#X obj 673 344 vu 19 200 empty empty -1 -10 0 12 #404040 #000000 1 0;
#X floatatom 124 272 5 0 0 0 - - - 0;
#X text 104 272 dB;
#X obj 105 293 tgl 19 0 empty empty empty 0 -10 0 12 #fcfcfc #000000 #000000 0 1;
#X obj 546 217 sel 0 1;
#X msg 508 273 1;
#X msg 559 270 0;
#X obj 720 227 sel 0 1;
#X msg 682 283 1;
#X msg 733 280 0;
#X text 801 144 2 In 2 Out True Stereo VCA with Mute and fader with signal level in dB;
#X text 124 293 Mute;
#X connect 0 0 3 0;
#X connect 1 0 6 0;
#X connect 2 0 4 1;
#X connect 2 0 7 1;
#X connect 3 0 4 0;
#X connect 4 0 5 0;
#X connect 4 0 10 0;
#X connect 6 0 7 0;
#X connect 7 0 8 0;
#X connect 7 0 10 0;
#X connect 9 0 7 1;
#X connect 9 0 4 1;
#X connect 10 0 11 0;
#X connect 11 0 12 0;
#X connect 14 0 15 0;
#X connect 14 0 18 0;
#X connect 15 0 16 0;
#X connect 15 1 17 0;
#X connect 16 0 3 1;
#X connect 17 0 3 1;
#X connect 18 0 19 0;
#X connect 18 1 20 0;
#X connect 19 0 6 1;
#X connect 20 0 6 1;
#X coords 0 -1 1 1 66 215 2 100 100;
