#N canvas 92 43 1366 685 12;
#X obj 445 210 env~ 1024;
#X obj 547 192 abs~;
#X obj 547 294 snapshot~;
#X obj 547 337 rmstodb;
#X obj 547 102 inlet~;
#X obj 547 369 - 100;
#X obj 445 368 - 100;
#X obj 445 442 outlet;
#X obj 547 442 outlet;
#X obj 625 170 expr 1000 / $f1;
#X floatatom 625 198 5 0 0 0 - - - 0;
#X obj 547 227 slop~ 0 0 0 0 1e+09;
#X obj 625 100 inlet;
#X floatatom 625 138 5 0 0 0 - - - 0;
#X obj 445 252 t f b;
#X connect 0 0 14 0;
#X connect 1 0 11 0;
#X connect 2 0 3 0;
#X connect 3 0 5 0;
#X connect 4 0 0 0;
#X connect 4 0 1 0;
#X connect 5 0 8 0;
#X connect 6 0 7 0;
#X connect 9 0 10 0;
#X connect 10 0 11 3;
#X connect 11 0 2 0;
#X connect 12 0 13 0;
#X connect 13 0 9 0;
#X connect 14 0 6 0;
#X connect 14 1 2 0;
