#N canvas 105 11 1366 685 12;
#X obj 527 210 vuactive;
#X obj 103 104 vu 19 80 empty empty -1 -10 0 12 #404040 #000000 0 0;
#X obj 527 166 inlet~;
#X obj 560 499 outlet;
#X obj 494 502 outlet;
#X floatatom 127 102 5 0 0 0 - - - 0;
#X floatatom 127 149 5 0 0 0 - - - 0;
#X text 664 153 audio in;
#X text 466 453 rms out;
#X text 636 452 peak out;
#X text 165 102 RMS;
#X text 166 151 Peak;
#X msg 618 269 500;
#X obj 658 231 loadbang;
#X obj 280 507 outlet~;
#X obj 296 467 *~ 1;
#X connect 0 0 1 0;
#X connect 0 1 1 1;
#X connect 1 0 5 0;
#X connect 1 1 6 0;
#X connect 2 0 0 0;
#X connect 2 0 15 0;
#X connect 5 0 4 0;
#X connect 6 0 3 0;
#X connect 12 0 0 1;
#X connect 13 0 12 0;
#X connect 15 0 14 0;
#X coords 0 -1 1 1 100 90 2 100 100;
