#N canvas 0 0 1370 729 12;
#X obj 266 169 inlet~;
#X obj 266 193 +~ 0;
#X obj 267 256 clip~ -10000 -1;
#X obj 453 256 clip~ -1 1;
#X obj 641 256 clip~ 1 10000;
#X obj 641 280 *~ -1;
#X obj 641 304 +~ 0.5;
#X obj 267 280 *~ -1;
#X obj 267 304 -~ 0.5;
#X obj 267 328 +~;
#X obj 269 427 +~;
#X obj 269 481 +~;
#X obj 268 538 outlet~;
#X connect 0 0 1 0;
#X connect 1 0 2 0;
#X connect 1 0 3 0;
#X connect 1 0 4 0;
#X connect 2 0 7 0;
#X connect 3 0 10 1;
#X connect 4 0 5 0;
#X connect 5 0 6 0;
#X connect 6 0 11 1;
#X connect 7 0 8 0;
#X connect 8 0 9 0;
#X connect 9 0 10 0;
#X connect 10 0 11 0;
#X connect 11 0 12 0;
