#N canvas 1364 5 1366 685 12;
#X obj 119 368 == 0;
#X obj 272 360 == 1;
#X obj 119 392 tgl 19 0 empty empty empty 0 -10 0 12 #fcfcfc #000000 #000000 0 1;
#X obj 272 384 tgl 19 0 empty empty empty 0 -10 0 12 #fcfcfc #000000 #000000 0 1;
#X obj 103 104 hradio 38 1 0 6 empty empty empty 0 -10 0 12 #fcfcfc #000000 #000000 0;
#X floatatom 103 150 5 0 0 0 - - - 16;
#X floatatom 119 424 5 0 0 0 - - - 0;
#X msg 119 448 \$1 20;
#X floatatom 272 407 5 0 0 0 - - - 0;
#X msg 272 428 \$1 20;
#X obj 196 422 -~ 1;
#X obj 573 436 tgl 19 0 empty empty empty 0 -10 0 12 #fcfcfc #000000 #000000 0 1;
#X floatatom 571 467 5 0 0 0 - - - 0;
#X msg 571 501 \$1 20;
#X obj 465 527 *~;
#X obj 573 412 == 2;
#X obj 804 355 == 3;
#X obj 1026 365 tgl 19 0 empty empty empty 0 -10 0 12 #fcfcfc #000000 #000000 0 1;
#X floatatom 1044 408 5 0 0 0 - - - 0;
#X msg 1007 442 \$1 20;
#X obj 876 504 *~;
#X obj 1026 341 == 4;
#X obj 1190 320 tgl 19 0 empty empty empty 0 -10 0 12 #fcfcfc #000000 #000000 0 1;
#X floatatom 1208 363 5 0 0 0 - - - 0;
#X msg 1208 397 \$1 20;
#X obj 1138 441 *~;
#X obj 1189 296 == 5;
#X obj 1138 359 noise~;
#X obj 502 280 loadbang;
#X msg 502 304 0;
#X obj 59 373 osc~;
#X floatatom 193 150 7 0 0 0 - - - 16;
#X obj 508 335 phasor~;
#X obj 416 339 phasor~;
#X floatatom 59 275 10 0 0 0 - - - 0;
#X obj 171 375 phasor~;
#X obj 60 586 *~ 1;
#X obj 197 400 *~ 1;
#X obj 118 471 line;
#X obj 272 452 line;
#X obj 571 525 line;
#X obj 1007 466 line;
#X obj 1208 421 line;
#X obj 177 469 *~;
#X obj 436 289 * 1;
#X obj 416 365 *~ 2;
#X obj 416 389 -~ 1;
#X obj 508 392 -~ -1;
#X obj 508 368 *~ -2;
#X obj 483 414 clip~ 0 1;
#X obj 414 414 clip~ 0 1;
#X obj 520 444 +~;
#X obj 426 443 -~ 1;
#X obj 465 473 -~ 1;
#X obj 465 497 +~ 1;
#X obj 873 292 phasor~;
#X obj 865 364 clip~ 0 1;
#X obj 870 331 -~ 0.99;
#X obj 912 241 loadbang;
#X msg 912 265 0;
#X obj 866 396 *~ 100;
#X obj 949 325 phasor~;
#X obj 941 397 clip~ 0 1;
#X obj 946 364 -~ 0.99;
#X obj 932 453 +~;
#X obj 951 287 * -0.5;
#X obj 942 429 *~ -100;
#X obj 794 386 tgl 19 0 empty empty empty 0 -10 0 12 #fcfcfc #000000 #000000 0 1;
#X floatatom 780 424 5 0 0 0 - - - 0;
#X msg 780 458 \$1 20;
#X obj 729 315 loadbang;
#X msg 729 350 0;
#X msg 768 351 0.5;
#X obj 780 489 line;
#X obj 646 408 +~;
#X obj 647 386 phasor~;
#X obj 722 387 phasor~;
#X obj 806 322 bng 19 250 50 0 empty empty empty 0 -10 0 12 #fcfcfc #000000 #000000;
#X obj 689 443 -~ 1;
#X obj 647 436 -~ 1;
#X obj 669 354 * -1;
#X obj 728 551 *~;
#X obj 61 471 *~;
#X obj 542 69 inlet;
#X text 496 34 phase inlet msg box 0 0.5 1;
#X text 223 35 Hz num inlet;
#X obj 60 609 outlet~;
#X obj 193 71 inlet;
#X text 31 34 signal inlet;
#X text 159 152 Type;
#X text 266 152 Frequency;
#X obj 136 228 mtof;
#X obj 136 198 ftom;
#X connect 0 0 2 0;
#X connect 1 0 3 0;
#X connect 2 0 6 0;
#X connect 3 0 8 0;
#X connect 4 0 5 0;
#X connect 4 0 0 0;
#X connect 4 0 15 0;
#X connect 4 0 26 0;
#X connect 4 0 21 0;
#X connect 4 0 16 0;
#X connect 4 0 1 0;
#X connect 6 0 7 0;
#X connect 7 0 38 0;
#X connect 8 0 9 0;
#X connect 9 0 39 0;
#X connect 10 0 43 0;
#X connect 11 0 12 0;
#X connect 12 0 13 0;
#X connect 13 0 40 0;
#X connect 14 0 36 0;
#X connect 15 0 11 0;
#X connect 16 0 67 0;
#X connect 17 0 18 0;
#X connect 18 0 19 0;
#X connect 19 0 41 0;
#X connect 20 0 36 0;
#X connect 21 0 17 0;
#X connect 22 0 23 0;
#X connect 23 0 24 0;
#X connect 24 0 42 0;
#X connect 25 0 36 0;
#X connect 26 0 22 0;
#X connect 27 0 25 0;
#X connect 28 0 29 0;
#X connect 29 0 33 1;
#X connect 29 0 32 1;
#X connect 30 0 82 0;
#X connect 31 0 92 0;
#X connect 32 0 48 0;
#X connect 33 0 45 0;
#X connect 34 0 35 0;
#X connect 34 0 33 0;
#X connect 34 0 44 0;
#X connect 34 0 55 0;
#X connect 34 0 65 0;
#X connect 34 0 80 0;
#X connect 34 0 75 0;
#X connect 34 0 30 0;
#X connect 35 0 37 0;
#X connect 35 0 43 0;
#X connect 36 0 86 0;
#X connect 37 0 10 0;
#X connect 38 0 82 1;
#X connect 39 0 43 1;
#X connect 40 0 14 1;
#X connect 41 0 20 1;
#X connect 42 0 25 1;
#X connect 43 0 36 0;
#X connect 44 0 32 0;
#X connect 45 0 46 0;
#X connect 46 0 50 0;
#X connect 47 0 49 0;
#X connect 48 0 47 0;
#X connect 49 0 51 0;
#X connect 50 0 51 0;
#X connect 51 0 52 0;
#X connect 51 0 53 0;
#X connect 52 0 53 0;
#X connect 53 0 54 0;
#X connect 54 0 14 0;
#X connect 55 0 57 0;
#X connect 56 0 60 0;
#X connect 57 0 56 0;
#X connect 58 0 59 0;
#X connect 59 0 55 1;
#X connect 60 0 64 0;
#X connect 61 0 63 0;
#X connect 62 0 66 0;
#X connect 63 0 62 0;
#X connect 64 0 20 0;
#X connect 65 0 61 0;
#X connect 66 0 64 0;
#X connect 67 0 68 0;
#X connect 68 0 69 0;
#X connect 69 0 73 0;
#X connect 70 0 71 0;
#X connect 70 0 72 0;
#X connect 71 0 75 1;
#X connect 72 0 76 1;
#X connect 73 0 81 1;
#X connect 74 0 78 0;
#X connect 74 0 79 0;
#X connect 75 0 74 0;
#X connect 76 0 74 1;
#X connect 77 0 72 0;
#X connect 77 0 71 0;
#X connect 78 0 81 0;
#X connect 79 0 78 0;
#X connect 80 0 76 0;
#X connect 81 0 36 0;
#X connect 82 0 36 0;
#X connect 83 0 30 1;
#X connect 83 0 55 1;
#X connect 83 0 61 1;
#X connect 83 0 33 1;
#X connect 83 0 32 1;
#X connect 83 0 76 1;
#X connect 83 0 75 1;
#X connect 83 0 35 1;
#X connect 87 0 31 0;
#X connect 91 0 34 0;
#X connect 92 0 91 0;
#X coords 0 -1 1 1 235 80 2 100 100;
